<?xml version="1.0" encoding="UTF-8" standalone="no"?>
<!DOCTYPE svg PUBLIC "-//W3C//DTD SVG 1.1//EN" "http://www.w3.org/Graphics/SVG/1.1/DTD/svg11.dtd">
<svg width="35px" height="12px" viewBox="0 0 35 12" version="1.1" xmlns="http://www.w3.org/2000/svg" xmlns:xlink="http://www.w3.org/1999/xlink" xml:space="preserve" style="fill-rule:evenodd;clip-rule:evenodd;stroke-linejoin:round;stroke-miterlimit:1.41421;">
    <g transform="matrix(0.224359,0,0,0.266667,-31.4103,-58.6667)">
        <g id="Button">
            <path id="Base" d="M296,225C296,222.24 293.337,220 290.057,220L145.943,220C142.663,220 140,222.24 140,225L140,260C140,262.76 142.663,265 145.943,265L290.057,265C293.337,265 296,262.76 296,260L296,225Z" style="fill:rgb(238,7,1);"/>
        </g>
    </g>
    <g transform="matrix(1,0,0,1,0,1.5)">
        <path d="M9.497,7.158L9.497,0L10.869,0L10.869,2.578C11.292,2.096 11.793,1.855 12.373,1.855C13.004,1.855 13.527,2.084 13.94,2.542C14.353,2.999 14.56,3.656 14.56,4.512C14.56,5.397 14.349,6.079 13.928,6.558C13.506,7.036 12.994,7.275 12.392,7.275C12.096,7.275 11.804,7.201 11.516,7.053C11.228,6.905 10.979,6.686 10.771,6.396L10.771,7.158L9.497,7.158ZM10.859,4.453C10.859,4.99 10.944,5.387 11.113,5.645C11.35,6.009 11.666,6.191 12.06,6.191C12.363,6.191 12.621,6.062 12.834,5.803C13.047,5.544 13.154,5.137 13.154,4.58C13.154,3.988 13.046,3.56 12.832,3.298C12.617,3.036 12.342,2.905 12.006,2.905C11.678,2.905 11.404,3.033 11.186,3.289C10.968,3.544 10.859,3.932 10.859,4.453Z" style="fill:white;fill-rule:nonzero;"/>
        <path d="M18.577,7.158L18.577,6.382C18.388,6.659 18.14,6.877 17.832,7.036C17.524,7.196 17.2,7.275 16.858,7.275C16.51,7.275 16.197,7.199 15.92,7.046C15.644,6.893 15.444,6.678 15.32,6.401C15.196,6.125 15.134,5.742 15.134,5.254L15.134,1.973L16.506,1.973L16.506,4.355C16.506,5.085 16.532,5.531 16.582,5.696C16.632,5.86 16.724,5.99 16.858,6.086C16.991,6.182 17.161,6.23 17.366,6.23C17.6,6.23 17.81,6.166 17.996,6.038C18.181,5.909 18.308,5.75 18.376,5.559C18.445,5.369 18.479,4.902 18.479,4.16L18.479,1.973L19.851,1.973L19.851,7.158L18.577,7.158Z" style="fill:white;fill-rule:nonzero;"/>
        <path d="M20.645,7.5L22.212,7.69C22.238,7.873 22.299,7.998 22.393,8.066C22.523,8.164 22.728,8.213 23.008,8.213C23.366,8.213 23.635,8.159 23.814,8.052C23.934,7.98 24.026,7.865 24.087,7.705C24.13,7.591 24.151,7.381 24.151,7.075L24.151,6.318C23.741,6.878 23.223,7.158 22.598,7.158C21.902,7.158 21.35,6.864 20.943,6.274C20.624,5.809 20.464,5.229 20.464,4.536C20.464,3.667 20.674,3.003 21.092,2.544C21.51,2.085 22.03,1.855 22.652,1.855C23.293,1.855 23.822,2.137 24.239,2.7L24.239,1.973L25.523,1.973L25.523,6.626C25.523,7.238 25.472,7.695 25.372,7.998C25.271,8.301 25.129,8.538 24.947,8.711C24.764,8.883 24.521,9.019 24.217,9.116C23.912,9.214 23.528,9.263 23.062,9.263C22.183,9.263 21.56,9.112 21.192,8.811C20.824,8.51 20.64,8.128 20.64,7.666C20.64,7.62 20.642,7.565 20.645,7.5ZM21.871,4.458C21.871,5.008 21.977,5.411 22.19,5.667C22.404,5.922 22.667,6.05 22.979,6.05C23.314,6.05 23.597,5.919 23.829,5.657C24.06,5.395 24.175,5.007 24.175,4.492C24.175,3.955 24.065,3.556 23.843,3.296C23.622,3.035 23.342,2.905 23.003,2.905C22.675,2.905 22.404,3.033 22.19,3.289C21.977,3.544 21.871,3.934 21.871,4.458Z" style="fill:white;fill-rule:nonzero;"/>
    </g>
</svg>
