<?xml version="1.0" encoding="UTF-8" standalone="no"?>
<!DOCTYPE svg PUBLIC "-//W3C//DTD SVG 1.1//EN" "http://www.w3.org/Graphics/SVG/1.1/DTD/svg11.dtd">
<svg width="35px" height="12px" viewBox="0 0 35 12" version="1.1" xmlns="http://www.w3.org/2000/svg" xmlns:xlink="http://www.w3.org/1999/xlink" xml:space="preserve" style="fill-rule:evenodd;clip-rule:evenodd;stroke-linejoin:round;stroke-miterlimit:1.41421;">
    <g transform="matrix(0.224359,0,0,0.266667,-31.4103,-58.6667)">
        <g id="Button">
            <path id="Base" d="M296,225C296,222.24 293.337,220 290.057,220L145.943,220C142.663,220 140,222.24 140,225L140,260C140,262.76 142.663,265 145.943,265L290.057,265C293.337,265 296,262.76 296,260L296,225Z" style="fill:rgb(212,197,249);"/>
        </g>
    </g>
    <g transform="matrix(1,0,0,1,0,2.5)">
        <path d="M6.236,7.158L6.236,1.211L4.112,1.211L4.112,0L9.8,0L9.8,1.211L7.681,1.211L7.681,7.158L6.236,7.158Z" style="fill-rule:nonzero;"/>
        <path d="M9.759,3.623C9.759,2.894 9.868,2.282 10.086,1.787C10.249,1.423 10.471,1.095 10.753,0.806C11.035,0.516 11.343,0.301 11.678,0.161C12.124,-0.028 12.639,-0.122 13.221,-0.122C14.276,-0.122 15.12,0.205 15.753,0.859C16.386,1.514 16.703,2.424 16.703,3.589C16.703,4.744 16.389,5.649 15.76,6.301C15.132,6.954 14.292,7.28 13.241,7.28C12.176,7.28 11.33,6.956 10.702,6.306C10.073,5.657 9.759,4.762 9.759,3.623ZM11.249,3.574C11.249,4.385 11.436,4.999 11.81,5.417C12.184,5.836 12.66,6.045 13.236,6.045C13.812,6.045 14.285,5.837 14.654,5.422C15.024,5.007 15.208,4.385 15.208,3.555C15.208,2.734 15.029,2.122 14.669,1.719C14.309,1.315 13.832,1.113 13.236,1.113C12.64,1.113 12.16,1.318 11.795,1.726C11.431,2.135 11.249,2.751 11.249,3.574Z" style="fill-rule:nonzero;"/>
        <path d="M17.326,0L19.967,0C20.563,0 21.017,0.046 21.33,0.137C21.75,0.26 22.109,0.48 22.409,0.796C22.708,1.112 22.936,1.498 23.092,1.956C23.249,2.413 23.327,2.977 23.327,3.647C23.327,4.237 23.253,4.744 23.107,5.171C22.928,5.692 22.672,6.113 22.34,6.436C22.09,6.68 21.751,6.87 21.325,7.007C21.006,7.108 20.579,7.158 20.045,7.158L17.326,7.158L17.326,0ZM18.771,1.211L18.771,5.952L19.85,5.952C20.254,5.952 20.545,5.929 20.724,5.884C20.958,5.825 21.153,5.726 21.308,5.586C21.462,5.446 21.588,5.216 21.686,4.895C21.784,4.574 21.833,4.137 21.833,3.584C21.833,3.031 21.784,2.606 21.686,2.31C21.588,2.013 21.452,1.782 21.276,1.616C21.1,1.45 20.877,1.338 20.607,1.279C20.405,1.234 20.01,1.211 19.42,1.211L18.771,1.211Z" style="fill-rule:nonzero;"/>
        <path d="M23.759,3.623C23.759,2.894 23.868,2.282 24.086,1.787C24.249,1.423 24.471,1.095 24.753,0.806C25.035,0.516 25.343,0.301 25.678,0.161C26.124,-0.028 26.639,-0.122 27.221,-0.122C28.276,-0.122 29.12,0.205 29.753,0.859C30.386,1.514 30.703,2.424 30.703,3.589C30.703,4.744 30.389,5.649 29.76,6.301C29.132,6.954 28.292,7.28 27.241,7.28C26.176,7.28 25.33,6.956 24.702,6.306C24.073,5.657 23.759,4.762 23.759,3.623ZM25.249,3.574C25.249,4.385 25.436,4.999 25.81,5.417C26.184,5.836 26.66,6.045 27.236,6.045C27.812,6.045 28.285,5.837 28.654,5.422C29.024,5.007 29.208,4.385 29.208,3.555C29.208,2.734 29.029,2.122 28.669,1.719C28.309,1.315 27.832,1.113 27.236,1.113C26.64,1.113 26.16,1.318 25.795,1.726C25.431,2.135 25.249,2.751 25.249,3.574Z" style="fill-rule:nonzero;"/>
    </g>
</svg>
