<svg id="goodlogo" xmlns="http://www.w3.org/2000/svg" xmlns:xlink="http://www.w3.org/1999/xlink" viewBox="0 0 256 156"><defs><style>.cls-1{fill:none;}.cls-2{clip-path:url(#clip-path);}.cls-3{fill:#fff;}</style><clipPath id="clip-path"><rect class="cls-1" x="0.02" y="0.01" width="93.15" height="156.02"/></clipPath></defs><title>good-facelogo</title><g class="cls-2"><polygon class="cls-3" points="0.02 104.1 0.02 154.27 54.18 143.89 86.7 112.16 89.97 0.01 0.02 0.01 0.02 104.1 0.02 104.1"/><path d="M33.49,85.67c-8.61,11.51-12,13-33.34,13-4.69,0-5.61,1.53-6,6.2s.18,5.45,4.86,5.61c29.69,1,33.34-6.55,43.14-17.65l-8.53-7.1Z"/><path d="M80.76.72v92c0,33.34-33.69,51.12-61.64,51.12H-.78c-4.61.14-4.43,2.08-4.43,6.65,0,0,.43,1.69.45,1.78C-4.63,157-3.71,156,1,155.86H16.49c51.67-1,76.68-31.38,76.68-61.22V.27c0-4.69-1.51-3.92-6.22-3.92S80.76-3.91,80.76.72Z"/><path d="M58.28,42.84a17,17,0,1,1-17-17h0A17,17,0,0,1,58.28,42.84Z"/></g><path id="cSymbol" class="cls-3" d="M89.52,134.48a3.77,3.77,0,0,1,2.67,1,3.65,3.65,0,0,1-2.61,6.22A3.31,3.31,0,0,1,87,140.66a3.51,3.51,0,0,1-.18-5l.18-.18a3.59,3.59,0,0,1,2.57-1Zm-2,1.63a2.82,2.82,0,0,0,2,4.8,2.63,2.63,0,0,0,2-.82,2.8,2.8,0,0,0,0-3.92,2.63,2.63,0,0,0-2-.82,2.78,2.78,0,0,0-2,.82Zm1.41.41v1.37h.33c.63,0,.9-.29.9-.75s-.29-.63-.82-.63Zm.41-.63c1.08,0,1.65.41,1.65,1.16a1.37,1.37,0,0,1-.82,1.24l1,2h-1l-.86-1.82H89v1.82h-.78v-4.35Z"/><path class="cls-3" d="M121.24,57.36a15.59,15.59,0,0,1-5.8,1.09,9.63,9.63,0,0,1-7-2.59,10.46,10.46,0,0,1-2.74-7.48c0-5.5,3.62-10.18,10.36-10.18a11.37,11.37,0,0,1,4.62.88l-.47,1.18a9.33,9.33,0,0,0-4.24-.85c-5.45,0-8.8,3.53-8.8,8.92,0,5.59,3.27,8.92,8.51,8.92a9.5,9.5,0,0,0,4.15-.68v-7h-4.59V48.42h6Z"/><path class="cls-3" d="M137.57,51c0,5.27-3.62,7.54-6.77,7.54-3.65,0-6.48-2.85-6.48-7.27,0-4.83,3.18-7.51,6.68-7.51C134.92,43.79,137.57,46.74,137.57,51Zm-11.83.18c0,3.53,2.27,6.18,5.15,6.18s5.27-2.65,5.27-6.27c0-2.59-1.44-6.15-5.18-6.15S125.74,48.18,125.74,51.21Z"/><path class="cls-3" d="M153.23,51c0,5.27-3.62,7.54-6.77,7.54-3.65,0-6.48-2.85-6.48-7.27,0-4.83,3.18-7.51,6.68-7.51C150.58,43.79,153.23,46.74,153.23,51Zm-11.83.18c0,3.53,2.27,6.18,5.15,6.18s5.27-2.65,5.27-6.27c0-2.59-1.44-6.15-5.18-6.15S141.4,48.18,141.4,51.21Z"/><path class="cls-3" d="M168.1,37.35v17.6c0,1.06,0,2.3.12,3.3h-1.27l-.12-2.68h-.06a5.35,5.35,0,0,1-5,3c-3.5,0-6.09-2.91-6.09-7.12,0-4.71,2.88-7.65,6.36-7.65a5,5,0,0,1,4.62,2.5h.06V37.35Zm-1.41,12.36a4.89,4.89,0,0,0-.15-1.29A4.53,4.53,0,0,0,162.09,45c-3.09,0-5,2.68-5,6.33,0,3.18,1.59,6.09,4.94,6.09a4.69,4.69,0,0,0,4.53-3.68,3.82,3.82,0,0,0,.15-1.18Z"/><path class="cls-3" d="M172.57,44.12l2.38,8c.47,1.65.88,3.06,1.21,4.42h.06c.35-1.29.85-2.8,1.41-4.42l2.83-8h1.32l2.71,8c.59,1.71,1,3.15,1.38,4.47h.06c.29-1.32.74-2.74,1.29-4.44l2.5-8h1.44l-4.71,14.13h-1.21l-2.68-7.86c-.59-1.71-1.09-3.24-1.47-4.83H181a48.72,48.72,0,0,1-1.53,4.86l-2.8,7.83h-1.24l-4.36-14.13Z"/><path class="cls-3" d="M195.91,40.09a1.15,1.15,0,0,1-1.18,1.21,1.13,1.13,0,0,1-1.09-1.21,1.21,1.21,0,0,1,1.15-1.24A1.17,1.17,0,0,1,195.91,40.09Zm-1.83,18.16V44.12h1.41V58.25Z"/><path class="cls-3" d="M200.24,37.35h1.41v20.9h-1.41Z"/><path class="cls-3" d="M206.48,37.35h1.41v20.9h-1.41Z"/><path class="cls-3" d="M107.52,64.94V84.78h-1.41V64.94Z"/><path class="cls-3" d="M111,74c0-1.29,0-2.27-.12-3.38h1.32l.09,2.56h.06a5.33,5.33,0,0,1,4.86-2.88c1.35,0,4.94.68,4.94,6v8.48h-1.41V76.42c0-2.56-1-4.89-3.92-4.89a4.54,4.54,0,0,0-4.24,3.24,5.47,5.47,0,0,0-.18,1.27v8.74H111Z"/><path class="cls-3" d="M137.46,63.88v17.6c0,1.06,0,2.3.12,3.3h-1.27l-.12-2.68h-.06a5.35,5.35,0,0,1-5,3c-3.5,0-6.09-2.91-6.09-7.12,0-4.71,2.88-7.65,6.36-7.65a5,5,0,0,1,4.62,2.5H136V63.88ZM136,76.25A4.89,4.89,0,0,0,135.9,75a4.53,4.53,0,0,0-4.44-3.44c-3.09,0-5,2.68-5,6.33,0,3.18,1.59,6.09,4.94,6.09a4.69,4.69,0,0,0,4.53-3.68,3.81,3.81,0,0,0,.15-1.18Z"/><path class="cls-3" d="M152.5,81.34c0,1.24,0,2.35.12,3.44h-1.32l-.09-2.53h-.06a5.43,5.43,0,0,1-4.83,2.86c-1.8,0-4.83-.91-4.83-6.24V70.65h1.41V78.6c0,3.06.94,5.27,3.74,5.27A4.67,4.67,0,0,0,150.82,81a5.08,5.08,0,0,0,.27-1.56v-8.8h1.41Z"/><path class="cls-3" d="M156.65,82.93a6.25,6.25,0,0,0,3.18,1c2.24,0,3.3-1.21,3.3-2.68s-.94-2.38-3-3.21c-2.33-.88-3.59-2.15-3.59-3.86,0-2,1.62-3.83,4.36-3.83a5.53,5.53,0,0,1,3.12.88l-.53,1.15a4.76,4.76,0,0,0-2.83-.85,2.47,2.47,0,0,0-2.74,2.44c0,1.47,1,2.12,2.91,2.91,2.3.88,3.65,2,3.65,4.18,0,2.41-1.88,4-4.77,4a6.94,6.94,0,0,1-3.59-1Z"/><path class="cls-3" d="M170.75,67.53v3.12h4V71.8h-4V81c0,1.79.56,2.91,2.06,2.91a5.27,5.27,0,0,0,1.62-.21l.18,1.06a4.92,4.92,0,0,1-2,.35,2.93,2.93,0,0,1-2.41-1,5.16,5.16,0,0,1-.88-3.38V71.8h-2.38V70.65h2.38V68.06Z"/><path class="cls-3" d="M177.87,74.89c0-1.41,0-2.86-.12-4.24H179l.06,2.85h.09a4.39,4.39,0,0,1,4-3.18,3.64,3.64,0,0,1,.59.06v1.35a2.43,2.43,0,0,0-.68-.06c-1.94,0-3.33,1.68-3.71,3.94a6.58,6.58,0,0,0-.12,1.35v7.8h-1.41Z"/><path class="cls-3" d="M188.61,66.62a1.15,1.15,0,0,1-1.18,1.21,1.13,1.13,0,0,1-1.09-1.21,1.21,1.21,0,0,1,1.15-1.24A1.17,1.17,0,0,1,188.61,66.62Zm-1.83,18.16V70.65h1.41V84.78Z"/><path class="cls-3" d="M193.14,77.57c0,4.5,2.44,6.3,5.39,6.3a8.21,8.21,0,0,0,3.92-.79l.35,1.09a9.32,9.32,0,0,1-4.44.91c-4.06,0-6.59-2.94-6.59-7.09,0-4.71,2.71-7.65,6.36-7.65,4.62,0,5.5,4.36,5.5,6.39a3.64,3.64,0,0,1-.06.85Zm9-1.12c0-2-.79-4.94-4.21-4.94-3.12,0-4.47,2.77-4.74,4.94Z"/><path class="cls-3" d="M207.21,82.93a6.25,6.25,0,0,0,3.18,1c2.24,0,3.3-1.21,3.3-2.68s-.94-2.38-3-3.21c-2.33-.88-3.59-2.15-3.59-3.86,0-2,1.62-3.83,4.36-3.83a5.53,5.53,0,0,1,3.12.88l-.53,1.15a4.76,4.76,0,0,0-2.83-.85,2.47,2.47,0,0,0-2.74,2.44c0,1.47,1,2.12,2.91,2.91,2.3.88,3.65,2,3.65,4.18,0,2.41-1.88,4-4.77,4a6.94,6.94,0,0,1-3.59-1Z"/><path class="cls-3" d="M118.18,104.1c0,5.27-3.62,7.54-6.77,7.54-3.65,0-6.48-2.86-6.48-7.27,0-4.83,3.18-7.51,6.68-7.51C115.53,96.86,118.18,99.81,118.18,104.1Zm-11.83.18c0,3.53,2.27,6.18,5.15,6.18s5.27-2.65,5.27-6.27c0-2.59-1.44-6.15-5.18-6.15S106.34,101.25,106.34,104.28Z"/><path class="cls-3" d="M121.86,111.32v-13h-2V97.19h2v-.76c0-2.18.41-3.94,1.56-5.09a4.49,4.49,0,0,1,3.15-1.24,4.7,4.7,0,0,1,2.12.47l-.44,1.09a3.78,3.78,0,0,0-1.79-.38c-2.65,0-3.18,2.41-3.18,5.12v.79H127v1.15h-3.77v13Z"/><path class="cls-3" d="M135.34,91.77a29.51,29.51,0,0,1,5.09-.44c3.62,0,6.36,1,8,2.71a9.46,9.46,0,0,1,2.47,6.89,10.85,10.85,0,0,1-2.59,7.51c-1.74,1.91-4.74,3-8.57,3a43.16,43.16,0,0,1-4.42-.18Zm1.41,18.37a24.35,24.35,0,0,0,3.21.15c6.36,0,9.51-3.56,9.51-9.3.06-5-2.74-8.48-9.12-8.48a18,18,0,0,0-3.59.32Z"/><path class="cls-3" d="M162.59,108a21.29,21.29,0,0,0,.21,3.36H161.5l-.21-2h-.06a5.4,5.4,0,0,1-4.53,2.36,3.84,3.84,0,0,1-4.15-3.89c0-3.27,2.86-5.24,8.63-5.18v-.38c0-1.38-.27-4.18-3.62-4.15A6.16,6.16,0,0,0,154,99.1l-.44-1a7.81,7.81,0,0,1,4.15-1.21c4.09,0,4.89,3.06,4.89,5.56Zm-1.41-4.21c-3.09-.09-7.15.38-7.15,3.77a2.7,2.7,0,0,0,2.83,2.94,4.23,4.23,0,0,0,4.18-2.83,2.36,2.36,0,0,0,.15-.85Z"/><path class="cls-3" d="M166,90.42h1.41v20.9H166Z"/><path class="cls-3" d="M171.63,90.42H173v20.9h-1.41Z"/><path class="cls-3" d="M186.08,108a21.29,21.29,0,0,0,.21,3.36H185l-.21-2h-.06a5.4,5.4,0,0,1-4.53,2.36,3.84,3.84,0,0,1-4.15-3.89c0-3.27,2.86-5.24,8.63-5.18v-.38c0-1.38-.27-4.18-3.62-4.15a6.16,6.16,0,0,0-3.56,1.06l-.44-1a7.81,7.81,0,0,1,4.15-1.21c4.09,0,4.89,3.06,4.89,5.56Zm-1.41-4.21c-3.09-.09-7.15.38-7.15,3.77a2.7,2.7,0,0,0,2.83,2.94,4.23,4.23,0,0,0,4.18-2.83,2.36,2.36,0,0,0,.15-.85Z"/><path class="cls-3" d="M189.47,109.46a6.25,6.25,0,0,0,3.18,1c2.24,0,3.3-1.21,3.3-2.68s-.94-2.38-3-3.21c-2.33-.88-3.59-2.15-3.59-3.86,0-2,1.62-3.83,4.36-3.83a5.53,5.53,0,0,1,3.12.88l-.53,1.15A4.76,4.76,0,0,0,193.5,98a2.47,2.47,0,0,0-2.74,2.44c0,1.47,1,2.12,2.91,2.91,2.3.88,3.65,2,3.65,4.18,0,2.41-1.88,4-4.77,4a6.94,6.94,0,0,1-3.59-1Z"/><path class="cls-3" d="M197.63,113.66a25.5,25.5,0,0,0,1-3.94l1.17-.19a23.22,23.22,0,0,1-1.43,4Z"/><path class="cls-3" d="M206.63,91.48v19.84h-1.41V91.48Z"/><path class="cls-3" d="M210.1,100.57c0-1.3,0-2.27-.12-3.39h1.32l.09,2.56h.06a5.33,5.33,0,0,1,4.86-2.88c1.35,0,4.95.68,4.95,6v8.48h-1.41V103c0-2.56-1-4.89-3.92-4.89a4.54,4.54,0,0,0-4.24,3.24,5.5,5.5,0,0,0-.18,1.27v8.74H210.1Z"/><path class="cls-3" d="M234.44,110.7a9.64,9.64,0,0,1-4.15.91c-4.06,0-6.77-3-6.77-7.21,0-4.47,3.06-7.54,7.27-7.54a7.22,7.22,0,0,1,3.71.88l-.5,1.15a6.63,6.63,0,0,0-3.33-.82c-3.8,0-5.74,2.91-5.74,6.21,0,3.71,2.33,6.12,5.59,6.12a7.85,7.85,0,0,0,3.53-.82Z"/><rect class="cls-3" x="237.8" y="107.86" width="2.66" height="3.49"/></svg>